<svg xmlns="http://www.w3.org/2000/svg" width="31.141" height="31.141" viewBox="0 0 31.141 31.141">
  <g id="Group_17" data-name="Group 17" transform="translate(0.5 0.5)">
    <path id="Stroke_15" data-name="Stroke 15" d="M30.01,14.657a.73.73,0,0,0-1.019-.46c-.241.1-.45.188-.45.188a3.255,3.255,0,0,1-1.2.35h-.119a.8.8,0,0,1-.8-.732,11.472,11.472,0,0,0-.809-3.279.8.8,0,0,1,.335-1l.149-.087a3.26,3.26,0,0,1,1.213-.3s.223-.033.484-.063a.73.73,0,0,0,.653-.907A1.692,1.692,0,0,0,27.8,7.242a.731.731,0,0,0-1.112.112c-.156.211-.3.388-.3.388a3.251,3.251,0,0,1-.863.9l-.1.058a.8.8,0,0,1-1.056-.238,11.334,11.334,0,0,0-2.342-2.43A.8.8,0,0,1,21.822,5l.088-.151a3.238,3.238,0,0,1,.9-.863s.177-.14.387-.3a.73.73,0,0,0,.112-1.112,1.688,1.688,0,0,0-1.128-.651.731.731,0,0,0-.908.652c-.03.26-.062.484-.062.484a3.272,3.272,0,0,1-.3,1.213l-.061.1a.8.8,0,0,1-1.032.322,11.342,11.342,0,0,0-3.241-.942.8.8,0,0,1-.7-.791V2.8a3.255,3.255,0,0,1,.35-1.2s.083-.209.188-.45A.73.73,0,0,0,15.96.131a1.688,1.688,0,0,0-1.3,0,.731.731,0,0,0-.46,1.019c.1.241.188.45.188.45a3.255,3.255,0,0,1,.35,1.2v.119A.8.8,0,0,1,14,3.712a11.469,11.469,0,0,0-3.279.81.8.8,0,0,1-1-.335l-.086-.149a3.252,3.252,0,0,1-.3-1.213S9.308,2.6,9.278,2.34a.73.73,0,0,0-.908-.652,1.692,1.692,0,0,0-1.128.651.73.73,0,0,0,.112,1.112c.211.156.387.3.387.3a3.265,3.265,0,0,1,.9.863l.059.1a.8.8,0,0,1-.238,1.056,11.345,11.345,0,0,0-2.43,2.342A.8.8,0,0,1,5,8.319l-.151-.088a3.252,3.252,0,0,1-.863-.9s-.14-.177-.3-.387A.73.73,0,0,0,2.577,6.83a1.69,1.69,0,0,0-.651,1.128.73.73,0,0,0,.652.907c.261.03.484.062.484.062a3.259,3.259,0,0,1,1.213.3l.105.061A.8.8,0,0,1,4.7,10.318a11.339,11.339,0,0,0-.941,3.241.8.8,0,0,1-.791.7H2.8a3.255,3.255,0,0,1-1.2-.35s-.209-.083-.45-.187a.73.73,0,0,0-1.019.459,1.689,1.689,0,0,0,0,1.3.73.73,0,0,0,1.019.459c.241-.1.45-.187.45-.187a3.255,3.255,0,0,1,1.2-.35h.119a.8.8,0,0,1,.794.732,11.5,11.5,0,0,0,.81,3.279.8.8,0,0,1-.335,1l-.149.086a3.263,3.263,0,0,1-1.213.3s-.223.033-.484.062a.731.731,0,0,0-.652.908A1.693,1.693,0,0,0,2.339,22.9a.731.731,0,0,0,1.112-.112c.156-.211.3-.387.3-.387a3.258,3.258,0,0,1,.863-.9l.1-.058a.8.8,0,0,1,1.055.238,11.323,11.323,0,0,0,2.342,2.429.8.8,0,0,1,.211,1.035l-.087.152a3.263,3.263,0,0,1-.9.863s-.177.14-.388.3a.731.731,0,0,0-.112,1.112,1.689,1.689,0,0,0,1.128.651.73.73,0,0,0,.907-.652c.03-.26.063-.484.063-.484a3.241,3.241,0,0,1,.3-1.213l.061-.105a.8.8,0,0,1,1.032-.321,11.339,11.339,0,0,0,3.241.941.8.8,0,0,1,.7.791v.171a3.255,3.255,0,0,1-.35,1.2s-.083.209-.188.45a.73.73,0,0,0,.46,1.019,1.693,1.693,0,0,0,1.3,0,.73.73,0,0,0,.46-1.019c-.1-.241-.188-.45-.188-.45a3.255,3.255,0,0,1-.35-1.2v-.119a.8.8,0,0,1,.732-.795,11.473,11.473,0,0,0,3.279-.81.8.8,0,0,1,1,.335l.086.15a3.259,3.259,0,0,1,.3,1.212s.033.223.063.484a.73.73,0,0,0,.907.652A1.685,1.685,0,0,0,22.9,27.8a.73.73,0,0,0-.111-1.112c-.211-.156-.388-.3-.388-.3a3.245,3.245,0,0,1-.9-.863l-.058-.1a.8.8,0,0,1,.238-1.055,11.323,11.323,0,0,0,2.429-2.342.8.8,0,0,1,1.035-.211l.152.088a3.258,3.258,0,0,1,.863.9s.14.177.3.387a.73.73,0,0,0,1.112.112,1.69,1.69,0,0,0,.651-1.128.73.73,0,0,0-.653-.908c-.26-.03-.484-.062-.484-.062a3.254,3.254,0,0,1-1.213-.3l-.1-.061a.8.8,0,0,1-.322-1.032,11.344,11.344,0,0,0,.941-3.241.8.8,0,0,1,.791-.7h.171a3.255,3.255,0,0,1,1.2.35s.209.083.45.188a.731.731,0,0,0,1.019-.46,1.693,1.693,0,0,0,0-1.3Z" transform="translate(0 0)" fill="#ebfff5" stroke="#00db75" stroke-miterlimit="10" stroke-width="1"/>
    <path id="Stroke_1" data-name="Stroke 1" d="M5.1,2.55A2.55,2.55,0,1,1,2.55,0,2.55,2.55,0,0,1,5.1,2.55Z" transform="translate(8.696 7.74)" fill="none" stroke="#00db75" stroke-miterlimit="10" stroke-width="1"/>
    <path id="Stroke_3" data-name="Stroke 3" d="M3.4,1.7A1.7,1.7,0,1,1,1.7,0,1.7,1.7,0,0,1,3.4,1.7Z" transform="translate(17.563 19.189)" fill="none" stroke="#00db75" stroke-miterlimit="10" stroke-width="1"/>
    <path id="Stroke_5" data-name="Stroke 5" d="M3.4,1.7A1.7,1.7,0,1,1,1.7,0,1.7,1.7,0,0,1,3.4,1.7Z" transform="translate(6.995 15.421)" fill="none" stroke="#00db75" stroke-miterlimit="10" stroke-width="1"/>
    <path id="Stroke_7" data-name="Stroke 7" d="M3.4,1.7A1.7,1.7,0,1,1,1.7,0,1.7,1.7,0,0,1,3.4,1.7Z" transform="translate(13.796 15.421)" fill="none" stroke="#00db75" stroke-miterlimit="10" stroke-width="1"/>
    <path id="Stroke_9" data-name="Stroke 9" d="M2.619,1.31A1.31,1.31,0,1,1,1.31,0,1.31,1.31,0,0,1,2.619,1.31Z" transform="translate(20.967 14.752)" fill="none" stroke="#00db75" stroke-miterlimit="10" stroke-width="1"/>
    <path id="Stroke_11" data-name="Stroke 11" d="M1.919.959A.96.96,0,1,1,.96,0,.96.96,0,0,1,1.919.959Z" transform="translate(13.761 21.771)" fill="none" stroke="#00db75" stroke-miterlimit="10" stroke-width="1"/>
    <path id="Stroke_13" data-name="Stroke 13" d="M1.919.959A.959.959,0,1,1,.959,0,.96.96,0,0,1,1.919.959Z" transform="translate(17.886 9.727)" fill="none" stroke="#00db75" stroke-miterlimit="10" stroke-width="1"/>
  </g>
</svg>
