<svg id="qr-code" xmlns="http://www.w3.org/2000/svg" width="156.6" height="156.6" viewBox="0 0 156.6 156.6">
  <path id="Path_856" data-name="Path 856" d="M450.27,16H434.61a2.61,2.61,0,0,0,0,5.22h13.05V34.27a2.61,2.61,0,1,0,5.22,0V18.61A2.61,2.61,0,0,0,450.27,16Z" transform="translate(-296.28 -16)"/>
  <path id="Path_857" data-name="Path 857" d="M18.61,36.88a2.61,2.61,0,0,0,2.61-2.61V21.22H34.27a2.61,2.61,0,0,0,0-5.22H18.61A2.61,2.61,0,0,0,16,18.61V34.27A2.61,2.61,0,0,0,18.61,36.88Z" transform="translate(-16 -16)"/>
  <path id="Path_858" data-name="Path 858" d="M450.27,432a2.61,2.61,0,0,0-2.61,2.61v13.05H434.61a2.61,2.61,0,0,0,0,5.22h15.66a2.61,2.61,0,0,0,2.61-2.61V434.61A2.61,2.61,0,0,0,450.27,432Z" transform="translate(-296.28 -296.28)"/>
  <path id="Path_859" data-name="Path 859" d="M18.61,452.88H34.27a2.61,2.61,0,1,0,0-5.22H21.22V434.61a2.61,2.61,0,0,0-5.22,0v15.66A2.61,2.61,0,0,0,18.61,452.88Z" transform="translate(-16 -296.28)"/>
  <path id="Path_860" data-name="Path 860" d="M48,50.61V97.59a2.61,2.61,0,0,0,2.61,2.61H97.59a2.61,2.61,0,0,0,2.61-2.61V50.61A2.61,2.61,0,0,0,97.59,48H50.61A2.61,2.61,0,0,0,48,50.61Zm5.22,2.61H94.98V94.98H53.22Z" transform="translate(-37.56 -37.56)"/>
  <path id="Path_861" data-name="Path 861" d="M108.71,80H82.61A2.61,2.61,0,0,0,80,82.61v26.1a2.61,2.61,0,0,0,2.61,2.61h26.1a2.61,2.61,0,0,0,2.61-2.61V82.61A2.61,2.61,0,0,0,108.71,80Zm-2.61,26.1H85.22V85.22H106.1Z" transform="translate(-59.12 -59.12)"/>
  <path id="Path_862" data-name="Path 862" d="M108.71,336H82.61A2.61,2.61,0,0,0,80,338.61v26.1a2.61,2.61,0,0,0,2.61,2.61h26.1a2.61,2.61,0,0,0,2.61-2.61v-26.1A2.61,2.61,0,0,0,108.71,336Zm-2.61,26.1H85.22V341.22H106.1Z" transform="translate(-59.12 -231.6)"/>
  <path id="Path_863" data-name="Path 863" d="M364.71,80h-26.1A2.61,2.61,0,0,0,336,82.61v26.1a2.61,2.61,0,0,0,2.61,2.61h26.1a2.61,2.61,0,0,0,2.61-2.61V82.61A2.61,2.61,0,0,0,364.71,80Zm-2.61,26.1H341.22V85.22H362.1Z" transform="translate(-231.6 -59.12)"/>
  <path id="Path_864" data-name="Path 864" d="M306.61,100.037h46.98a2.61,2.61,0,0,0,2.61-2.61V50.61A2.61,2.61,0,0,0,353.59,48H306.61A2.61,2.61,0,0,0,304,50.61V97.427A2.61,2.61,0,0,0,306.61,100.037Zm2.61-46.817h41.76v41.6H309.22Z" transform="translate(-210.04 -37.56)"/>
  <path id="Path_865" data-name="Path 865" d="M48,353.59a2.61,2.61,0,0,0,2.61,2.61H97.59a2.61,2.61,0,0,0,2.61-2.61V306.61A2.61,2.61,0,0,0,97.59,304H50.61A2.61,2.61,0,0,0,48,306.61Zm5.22-44.37H94.98v41.76H53.22Z" transform="translate(-37.56 -210.04)"/>
  <path id="Path_866" data-name="Path 866" d="M226.61,68.88a2.61,2.61,0,0,0,2.61-2.61V53.22h2.61a2.61,2.61,0,1,0,0-5.22h-5.22A2.61,2.61,0,0,0,224,50.61V66.27A2.61,2.61,0,0,0,226.61,68.88Z" transform="translate(-156.14 -37.56)"/>
  <ellipse id="Ellipse_52" data-name="Ellipse 52" cx="2.466" cy="2.74" rx="2.466" ry="2.74" transform="translate(83.78 10.351)"/>
  <path id="Path_867" data-name="Path 867" d="M258.61,90.44h5.22a2.61,2.61,0,0,0,2.61-2.61V82.61a2.61,2.61,0,1,0-5.22,0v2.61h-2.61a2.61,2.61,0,1,0,0,5.22Z" transform="translate(-177.7 -59.12)"/>
  <path id="Path_868" data-name="Path 868" d="M263.83,136h-5.22a2.61,2.61,0,0,0-2.61,2.61v10.44a2.61,2.61,0,0,0,5.22,0v-7.83h2.61a2.61,2.61,0,0,0,0-5.22Z" transform="translate(-177.7 -96.85)"/>
  <path id="Path_869" data-name="Path 869" d="M226.61,154.1h15.66a2.61,2.61,0,1,0,0-5.22H229.22V130.61a2.61,2.61,0,1,0-5.22,0v20.88A2.61,2.61,0,0,0,226.61,154.1Z" transform="translate(-156.14 -91.46)"/>
  <path id="Path_870" data-name="Path 870" d="M269.05,400a2.61,2.61,0,0,0-2.61,2.61v13.05h-7.83a2.61,2.61,0,1,0,0,5.22h10.44a2.61,2.61,0,0,0,2.61-2.61V402.61A2.61,2.61,0,0,0,269.05,400Z" transform="translate(-177.7 -274.72)"/>
  <ellipse id="Ellipse_53" data-name="Ellipse 53" cx="2.466" cy="2.74" rx="2.466" ry="2.74" transform="translate(67.888 140.77)"/>
  <path id="Path_871" data-name="Path 871" d="M226.61,410.44a2.61,2.61,0,0,0,2.61-2.61v-2.61h7.83a2.61,2.61,0,1,0,0-5.22H226.61a2.61,2.61,0,0,0-2.61,2.61v5.22A2.61,2.61,0,0,0,226.61,410.44Z" transform="translate(-156.14 -274.72)"/>
  <path id="Path_872" data-name="Path 872" d="M226.61,276.88a2.61,2.61,0,0,0,2.61-2.61V261.22h5.22a2.61,2.61,0,0,0,0-5.22h-7.83a2.61,2.61,0,0,0-2.61,2.61v15.66A2.61,2.61,0,0,0,226.61,276.88Z" transform="translate(-156.14 -177.7)"/>
  <path id="Path_873" data-name="Path 873" d="M226.61,229.22h15.66v13.05a2.61,2.61,0,1,0,5.22,0V226.61a2.61,2.61,0,0,0-2.61-2.61H226.61a2.61,2.61,0,0,0,0,5.22Z" transform="translate(-156.14 -156.14)"/>
  <path id="Path_874" data-name="Path 874" d="M48,263.83a2.61,2.61,0,0,0,2.61,2.61H66.27a2.61,2.61,0,1,0,0-5.22H53.22v-2.61a2.61,2.61,0,0,0-5.22,0Z" transform="translate(-37.56 -177.7)"/>
  <path id="Path_875" data-name="Path 875" d="M61.05,234.44a2.61,2.61,0,0,0,2.61-2.61v-5.22A2.61,2.61,0,0,0,61.05,224H50.61a2.61,2.61,0,1,0,0,5.22h7.83v2.61A2.61,2.61,0,0,0,61.05,234.44Z" transform="translate(-37.56 -156.14)"/>
  <path id="Path_876" data-name="Path 876" d="M114.61,224a2.61,2.61,0,0,0-2.61,2.61v5.22a2.61,2.61,0,0,0,2.61,2.61h15.66a2.61,2.61,0,0,0,0-5.22H117.22v-2.61A2.61,2.61,0,0,0,114.61,224Z" transform="translate(-80.68 -156.14)"/>
  <path id="Path_877" data-name="Path 877" d="M154.1,226.61a2.61,2.61,0,0,0-5.22,0v13.05H130.61a2.61,2.61,0,1,0,0,5.22h20.88a2.61,2.61,0,0,0,2.61-2.61Z" transform="translate(-91.46 -156.14)"/>
  <path id="Path_878" data-name="Path 878" d="M420.88,226.61a2.61,2.61,0,0,0-2.61-2.61H402.61a2.61,2.61,0,0,0,0,5.22h13.05v2.61a2.61,2.61,0,1,0,5.22,0Z" transform="translate(-274.72 -156.14)"/>
  <ellipse id="Ellipse_54" data-name="Ellipse 54" cx="2.74" cy="2.466" rx="2.74" ry="2.466" transform="translate(96.383 94.191)"/>
  <path id="Path_879" data-name="Path 879" d="M394.27,263.83v-5.22a2.61,2.61,0,1,0-5.22,0v2.61H378.61a2.61,2.61,0,0,0,0,5.22h13.05A2.61,2.61,0,0,0,394.27,263.83Z" transform="translate(-258.55 -177.7)"/>
  <path id="Path_880" data-name="Path 880" d="M397.05,368H386.61a2.61,2.61,0,1,0,0,5.22h7.83v2.61a2.61,2.61,0,0,0,5.22,0v-5.22A2.61,2.61,0,0,0,397.05,368Z" transform="translate(-263.94 -253.16)"/>
  <circle id="Ellipse_55" data-name="Ellipse 55" cx="2.74" cy="2.74" r="2.74" transform="translate(130.358 130.358)"/>
  <ellipse id="Ellipse_56" data-name="Ellipse 56" cx="2.74" cy="2.466" rx="2.74" ry="2.466" transform="translate(109.535 115.015)"/>
  <path id="Path_881" data-name="Path 881" d="M365.05,405.22h-7.83v-2.61a2.61,2.61,0,0,0-5.22,0v5.22a2.61,2.61,0,0,0,2.61,2.61h10.44a2.61,2.61,0,0,0,0-5.22Z" transform="translate(-242.38 -274.72)"/>
  <path id="Path_882" data-name="Path 882" d="M346.61,256a2.61,2.61,0,0,0-2.61,2.61v15.66a2.61,2.61,0,0,0,2.61,2.61h12.724a2.61,2.61,0,1,0,0-5.22H349.22V258.61A2.61,2.61,0,0,0,346.61,256Z" transform="translate(-236.99 -177.7)"/>
  <path id="Path_883" data-name="Path 883" d="M332.88,224H314.61a2.61,2.61,0,0,0-2.61,2.61v15.66a2.61,2.61,0,1,0,5.22,0V229.22h15.66a2.61,2.61,0,1,0,0-5.22Z" transform="translate(-215.43 -156.14)"/>
  <path id="Path_884" data-name="Path 884" d="M226.61,351.66h20.88a2.61,2.61,0,0,0,2.61-2.61V338.61a2.61,2.61,0,0,0-2.61-2.61H226.61a2.61,2.61,0,0,0-2.61,2.61v10.44A2.61,2.61,0,0,0,226.61,351.66Zm2.61-10.44h15.66v5.22H229.22Z" transform="translate(-156.14 -231.6)"/>
  <path id="Path_885" data-name="Path 885" d="M322.61,377.76h41.76a2.61,2.61,0,0,0,2.61-2.61V338.61a2.61,2.61,0,0,0-2.61-2.61H322.61a2.61,2.61,0,0,0-2.61,2.61v36.54A2.61,2.61,0,0,0,322.61,377.76Zm2.61-36.54h36.54v31.32H325.22Z" transform="translate(-220.82 -231.6)"/>
  <path id="Path_886" data-name="Path 886" d="M272.5,304H267.61a2.61,2.61,0,0,0,0,5.22H272.5a2.61,2.61,0,0,0,0-5.22Z" transform="translate(-183.764 -210.04)"/>
  <path id="Path_887" data-name="Path 887" d="M431.66,274.61a2.61,2.61,0,0,0-5.22,0v7.83h-7.83a2.61,2.61,0,0,0,0,5.22h10.44a2.61,2.61,0,0,0,2.61-2.61Z" transform="translate(-285.5 -188.48)"/>
</svg>
