<svg xmlns="http://www.w3.org/2000/svg" width="30.731" height="30.731" viewBox="0 0 30.731 30.731">
  <g id="Group_17" data-name="Group 17" transform="translate(0.5 0.5)">
    <path id="Stroke_15_Copy" data-name="Stroke 15 Copy" d="M29.6,14.458a.72.72,0,0,0-1-.453c-.238.1-.444.185-.444.185a3.211,3.211,0,0,1-1.182.345h-.118a.791.791,0,0,1-.784-.722,11.316,11.316,0,0,0-.8-3.235.789.789,0,0,1,.331-.987l.147-.085a3.216,3.216,0,0,1,1.2-.292s.22-.032.477-.062a.72.72,0,0,0,.644-.895,1.67,1.67,0,0,0-.642-1.113.721.721,0,0,0-1.1.11c-.154.208-.292.383-.292.383a3.207,3.207,0,0,1-.851.89l-.1.057a.792.792,0,0,1-1.041-.235,11.18,11.18,0,0,0-2.31-2.4.789.789,0,0,1-.209-1.021l.087-.149a3.194,3.194,0,0,1,.89-.851s.174-.138.382-.292a.72.72,0,0,0,.11-1.1A1.665,1.665,0,0,0,21.881,1.9a.721.721,0,0,0-.9.643c-.029.257-.061.477-.061.477a3.228,3.228,0,0,1-.293,1.2l-.06.1a.79.79,0,0,1-1.018.317,11.187,11.187,0,0,0-3.2-.929.789.789,0,0,1-.691-.78V2.76a3.21,3.21,0,0,1,.345-1.182s.082-.207.185-.444a.72.72,0,0,0-.453-1,1.665,1.665,0,0,0-1.285,0,.721.721,0,0,0-.453,1c.1.238.185.444.185.444a3.21,3.21,0,0,1,.345,1.182v.117a.79.79,0,0,1-.722.784,11.314,11.314,0,0,0-3.234.8.79.79,0,0,1-.987-.331l-.085-.147a3.208,3.208,0,0,1-.293-1.2s-.032-.22-.061-.477a.72.72,0,0,0-.9-.643,1.669,1.669,0,0,0-1.113.642.72.72,0,0,0,.11,1.1c.208.154.382.292.382.292a3.22,3.22,0,0,1,.89.851l.058.1a.792.792,0,0,1-.235,1.041A11.191,11.191,0,0,0,5.952,8a.789.789,0,0,1-1.021.208L4.782,8.12a3.207,3.207,0,0,1-.851-.89s-.138-.174-.292-.382a.72.72,0,0,0-1.1-.11A1.667,1.667,0,0,0,1.9,7.851a.72.72,0,0,0,.643.895c.257.03.477.061.477.061a3.214,3.214,0,0,1,1.2.293l.1.06a.789.789,0,0,1,.317,1.018,11.185,11.185,0,0,0-.928,3.2.79.79,0,0,1-.781.691H2.76a3.21,3.21,0,0,1-1.182-.345s-.207-.082-.444-.185a.72.72,0,0,0-1,.453,1.666,1.666,0,0,0,0,1.285.72.72,0,0,0,1,.453c.238-.1.444-.185.444-.185A3.21,3.21,0,0,1,2.76,15.2h.118a.79.79,0,0,1,.783.722,11.347,11.347,0,0,0,.8,3.235.789.789,0,0,1-.331.987l-.147.085a3.219,3.219,0,0,1-1.2.293s-.22.032-.478.061a.721.721,0,0,0-.643.9,1.67,1.67,0,0,0,.642,1.112.721.721,0,0,0,1.1-.11c.154-.208.292-.382.292-.382a3.214,3.214,0,0,1,.851-.89l.1-.057a.79.79,0,0,1,1.041.235A11.169,11.169,0,0,0,8,23.779.789.789,0,0,1,8.206,24.8l-.086.15a3.218,3.218,0,0,1-.89.851s-.175.138-.383.292a.721.721,0,0,0-.11,1.1,1.667,1.667,0,0,0,1.113.642.72.72,0,0,0,.895-.643c.03-.257.062-.477.062-.477a3.2,3.2,0,0,1,.293-1.2l.06-.1a.789.789,0,0,1,1.018-.317,11.185,11.185,0,0,0,3.2.928.79.79,0,0,1,.691.781v.168a3.21,3.21,0,0,1-.345,1.182s-.082.207-.185.444a.72.72,0,0,0,.453,1,1.67,1.67,0,0,0,1.285,0,.72.72,0,0,0,.453-1c-.1-.238-.185-.444-.185-.444a3.21,3.21,0,0,1-.345-1.182v-.118a.79.79,0,0,1,.722-.784,11.317,11.317,0,0,0,3.234-.8.79.79,0,0,1,.987.331l.085.148a3.214,3.214,0,0,1,.293,1.2s.032.22.062.477a.72.72,0,0,0,.895.643,1.662,1.662,0,0,0,1.112-.642.72.72,0,0,0-.11-1.1c-.208-.154-.383-.292-.383-.292a3.2,3.2,0,0,1-.89-.851l-.057-.1a.79.79,0,0,1,.235-1.041,11.169,11.169,0,0,0,2.4-2.31.79.79,0,0,1,1.021-.208l.15.086a3.214,3.214,0,0,1,.851.89s.138.175.292.382a.72.72,0,0,0,1.1.11,1.667,1.667,0,0,0,.642-1.112.721.721,0,0,0-.644-.9c-.256-.029-.477-.061-.477-.061a3.21,3.21,0,0,1-1.2-.293l-.1-.06a.789.789,0,0,1-.317-1.018,11.189,11.189,0,0,0,.928-3.2.79.79,0,0,1,.781-.691h.169a3.211,3.211,0,0,1,1.182.345s.207.082.444.185a.721.721,0,0,0,1-.453,1.67,1.67,0,0,0,0-1.285Z" transform="translate(0 0)" fill="#ffedeb"/>
    <path id="Stroke_1" data-name="Stroke 1" d="M5.03,2.515A2.515,2.515,0,1,1,2.515,0,2.515,2.515,0,0,1,5.03,2.515Z" transform="translate(8.578 7.635)" fill="none" stroke="#ff3e29" stroke-miterlimit="10" stroke-width="1"/>
    <path id="Stroke_3" data-name="Stroke 3" d="M3.358,1.679A1.679,1.679,0,1,1,1.679,0,1.678,1.678,0,0,1,3.358,1.679Z" transform="translate(17.325 18.929)" fill="none" stroke="#ff3e29" stroke-miterlimit="10" stroke-width="1"/>
    <path id="Stroke_5" data-name="Stroke 5" d="M3.357,1.679A1.679,1.679,0,1,1,1.679,0,1.678,1.678,0,0,1,3.357,1.679Z" transform="translate(6.9 15.212)" fill="none" stroke="#ff3e29" stroke-miterlimit="10" stroke-width="1"/>
    <path id="Stroke_7" data-name="Stroke 7" d="M3.358,1.679A1.679,1.679,0,1,1,1.679,0,1.679,1.679,0,0,1,3.358,1.679Z" transform="translate(13.608 15.212)" fill="none" stroke="#ff3e29" stroke-miterlimit="10" stroke-width="1"/>
    <path id="Stroke_9" data-name="Stroke 9" d="M2.583,1.292A1.292,1.292,0,1,1,1.292,0,1.292,1.292,0,0,1,2.583,1.292Z" transform="translate(20.682 14.551)" fill="none" stroke="#ff3e29" stroke-miterlimit="10" stroke-width="1"/>
    <path id="Stroke_11" data-name="Stroke 11" d="M1.893.946A.946.946,0,1,1,.946,0,.947.947,0,0,1,1.893.946Z" transform="translate(13.574 21.475)" fill="none" stroke="#ff3e29" stroke-miterlimit="10" stroke-width="1"/>
    <path id="Stroke_13" data-name="Stroke 13" d="M1.893.946A.946.946,0,1,1,.946,0,.947.947,0,0,1,1.893.946Z" transform="translate(17.643 9.594)" fill="none" stroke="#ff3e29" stroke-miterlimit="10" stroke-width="1"/>
    <path id="Stroke_15" data-name="Stroke 15" d="M29.6,14.458a.72.72,0,0,0-1-.453c-.238.1-.444.185-.444.185a3.211,3.211,0,0,1-1.182.345h-.118a.791.791,0,0,1-.784-.722,11.316,11.316,0,0,0-.8-3.235.789.789,0,0,1,.331-.987l.147-.085a3.216,3.216,0,0,1,1.2-.292s.22-.032.477-.062a.72.72,0,0,0,.644-.895,1.67,1.67,0,0,0-.642-1.113.721.721,0,0,0-1.1.11c-.154.208-.292.383-.292.383a3.207,3.207,0,0,1-.851.89l-.1.057a.792.792,0,0,1-1.041-.235,11.18,11.18,0,0,0-2.31-2.4.789.789,0,0,1-.209-1.021l.087-.149a3.194,3.194,0,0,1,.89-.851s.174-.138.382-.292a.72.72,0,0,0,.11-1.1A1.665,1.665,0,0,0,21.881,1.9a.721.721,0,0,0-.9.643c-.029.257-.061.477-.061.477a3.228,3.228,0,0,1-.293,1.2l-.06.1a.79.79,0,0,1-1.018.317,11.187,11.187,0,0,0-3.2-.929.789.789,0,0,1-.691-.78V2.76a3.21,3.21,0,0,1,.345-1.182s.082-.207.185-.444a.72.72,0,0,0-.453-1,1.665,1.665,0,0,0-1.285,0,.721.721,0,0,0-.453,1c.1.238.185.444.185.444a3.21,3.21,0,0,1,.345,1.182v.117a.79.79,0,0,1-.722.784,11.314,11.314,0,0,0-3.234.8.79.79,0,0,1-.987-.331l-.085-.147a3.208,3.208,0,0,1-.293-1.2s-.032-.22-.061-.477a.72.72,0,0,0-.9-.643,1.669,1.669,0,0,0-1.113.642.72.72,0,0,0,.11,1.1c.208.154.382.292.382.292a3.22,3.22,0,0,1,.89.851l.058.1a.792.792,0,0,1-.235,1.041A11.191,11.191,0,0,0,5.952,8a.789.789,0,0,1-1.021.208L4.782,8.12a3.207,3.207,0,0,1-.851-.89s-.138-.174-.292-.382a.72.72,0,0,0-1.1-.11A1.667,1.667,0,0,0,1.9,7.851a.72.72,0,0,0,.643.895c.257.03.477.061.477.061a3.214,3.214,0,0,1,1.2.293l.1.06a.789.789,0,0,1,.317,1.018,11.185,11.185,0,0,0-.928,3.2.79.79,0,0,1-.781.691H2.76a3.21,3.21,0,0,1-1.182-.345s-.207-.082-.444-.185a.72.72,0,0,0-1,.453,1.666,1.666,0,0,0,0,1.285.72.72,0,0,0,1,.453c.238-.1.444-.185.444-.185A3.21,3.21,0,0,1,2.76,15.2h.118a.79.79,0,0,1,.783.722,11.347,11.347,0,0,0,.8,3.235.789.789,0,0,1-.331.987l-.147.085a3.219,3.219,0,0,1-1.2.293s-.22.032-.478.061a.721.721,0,0,0-.643.9,1.67,1.67,0,0,0,.642,1.112.721.721,0,0,0,1.1-.11c.154-.208.292-.382.292-.382a3.214,3.214,0,0,1,.851-.89l.1-.057a.79.79,0,0,1,1.041.235A11.169,11.169,0,0,0,8,23.779.789.789,0,0,1,8.206,24.8l-.086.15a3.218,3.218,0,0,1-.89.851s-.175.138-.383.292a.721.721,0,0,0-.11,1.1,1.667,1.667,0,0,0,1.113.642.72.72,0,0,0,.895-.643c.03-.257.062-.477.062-.477a3.2,3.2,0,0,1,.293-1.2l.06-.1a.789.789,0,0,1,1.018-.317,11.185,11.185,0,0,0,3.2.928.79.79,0,0,1,.691.781v.168a3.21,3.21,0,0,1-.345,1.182s-.082.207-.185.444a.72.72,0,0,0,.453,1,1.67,1.67,0,0,0,1.285,0,.72.72,0,0,0,.453-1c-.1-.238-.185-.444-.185-.444a3.21,3.21,0,0,1-.345-1.182v-.118a.79.79,0,0,1,.722-.784,11.317,11.317,0,0,0,3.234-.8.79.79,0,0,1,.987.331l.085.148a3.214,3.214,0,0,1,.293,1.2s.032.22.062.477a.72.72,0,0,0,.895.643,1.662,1.662,0,0,0,1.112-.642.72.72,0,0,0-.11-1.1c-.208-.154-.383-.292-.383-.292a3.2,3.2,0,0,1-.89-.851l-.057-.1a.79.79,0,0,1,.235-1.041,11.169,11.169,0,0,0,2.4-2.31.79.79,0,0,1,1.021-.208l.15.086a3.214,3.214,0,0,1,.851.89s.138.175.292.382a.72.72,0,0,0,1.1.11,1.667,1.667,0,0,0,.642-1.112.721.721,0,0,0-.644-.9c-.256-.029-.477-.061-.477-.061a3.21,3.21,0,0,1-1.2-.293l-.1-.06a.789.789,0,0,1-.317-1.018,11.189,11.189,0,0,0,.928-3.2.79.79,0,0,1,.781-.691h.169a3.211,3.211,0,0,1,1.182.345s.207.082.444.185a.721.721,0,0,0,1-.453,1.67,1.67,0,0,0,0-1.285Z" transform="translate(0 0)" fill="none" stroke="#ff3e29" stroke-miterlimit="10" stroke-width="1"/>
  </g>
</svg>
