<svg xmlns="http://www.w3.org/2000/svg" width="30.984" height="30.984" viewBox="0 0 30.984 30.984">
  <g id="Group_17" data-name="Group 17" transform="translate(0.5 0.5)">
    <path id="Stroke_15" data-name="Stroke 15" d="M29.854,14.581a.727.727,0,0,0-1.013-.457c-.24.1-.448.187-.448.187a3.238,3.238,0,0,1-1.192.348h-.119a.8.8,0,0,1-.791-.728,11.412,11.412,0,0,0-.8-3.262.8.8,0,0,1,.334-1l.149-.086a3.243,3.243,0,0,1,1.206-.295s.222-.033.481-.062a.726.726,0,0,0,.649-.9A1.684,1.684,0,0,0,27.658,7.2a.727.727,0,0,0-1.106.111c-.155.21-.295.386-.295.386a3.234,3.234,0,0,1-.859.9l-.1.058a.8.8,0,0,1-1.05-.237A11.275,11.275,0,0,0,21.919,6a.8.8,0,0,1-.211-1.03l.088-.151a3.222,3.222,0,0,1,.9-.859s.176-.139.385-.295a.726.726,0,0,0,.111-1.106,1.679,1.679,0,0,0-1.122-.648.727.727,0,0,0-.9.649c-.029.259-.062.481-.062.481a3.255,3.255,0,0,1-.3,1.207l-.061.1a.8.8,0,0,1-1.027.32A11.282,11.282,0,0,0,16.5,3.74a.8.8,0,0,1-.7-.787v-.17a3.238,3.238,0,0,1,.348-1.192s.083-.208.187-.448A.726.726,0,0,0,15.876.13a1.679,1.679,0,0,0-1.3,0,.727.727,0,0,0-.457,1.013c.1.24.187.448.187.448a3.238,3.238,0,0,1,.348,1.192V2.9a.8.8,0,0,1-.728.79,11.41,11.41,0,0,0-3.262.805.8.8,0,0,1-1-.334l-.086-.149a3.235,3.235,0,0,1-.3-1.206s-.033-.222-.062-.481a.726.726,0,0,0-.9-.649A1.684,1.684,0,0,0,7.2,2.327a.727.727,0,0,0,.111,1.106c.21.156.385.295.385.295a3.248,3.248,0,0,1,.9.859l.058.1a.8.8,0,0,1-.237,1.05A11.286,11.286,0,0,0,6,8.065a.8.8,0,0,1-1.03.21l-.151-.087a3.235,3.235,0,0,1-.859-.9s-.139-.176-.295-.385a.726.726,0,0,0-1.106-.111,1.681,1.681,0,0,0-.648,1.122.726.726,0,0,0,.649.9c.26.03.481.062.481.062a3.242,3.242,0,0,1,1.206.3l.1.061a.8.8,0,0,1,.319,1.027,11.28,11.28,0,0,0-.936,3.224.8.8,0,0,1-.787.7h-.17a3.238,3.238,0,0,1-1.192-.348s-.208-.082-.448-.186a.726.726,0,0,0-1.013.457,1.68,1.68,0,0,0,0,1.3.726.726,0,0,0,1.013.457c.24-.1.448-.186.448-.186a3.238,3.238,0,0,1,1.192-.348H2.9a.8.8,0,0,1,.79.728A11.444,11.444,0,0,0,4.5,19.316a.8.8,0,0,1-.334,1l-.148.086a3.246,3.246,0,0,1-1.206.3s-.222.033-.482.062a.727.727,0,0,0-.649.9,1.684,1.684,0,0,0,.648,1.122.727.727,0,0,0,1.106-.111c.155-.21.294-.385.294-.385a3.241,3.241,0,0,1,.859-.9l.1-.058a.8.8,0,0,1,1.05.237,11.264,11.264,0,0,0,2.33,2.417.8.8,0,0,1,.21,1.03l-.087.151a3.246,3.246,0,0,1-.9.858s-.176.139-.386.295a.727.727,0,0,0-.111,1.106,1.681,1.681,0,0,0,1.122.647.726.726,0,0,0,.9-.649c.03-.259.062-.481.062-.481a3.224,3.224,0,0,1,.3-1.206l.061-.1a.8.8,0,0,1,1.026-.32,11.28,11.28,0,0,0,3.224.936.8.8,0,0,1,.7.787v.17a3.238,3.238,0,0,1-.348,1.192s-.083.208-.187.448a.726.726,0,0,0,.457,1.013,1.684,1.684,0,0,0,1.3,0,.726.726,0,0,0,.457-1.013c-.1-.24-.187-.448-.187-.448a3.238,3.238,0,0,1-.348-1.192v-.119a.8.8,0,0,1,.728-.79,11.413,11.413,0,0,0,3.262-.805.8.8,0,0,1,1,.334l.086.149a3.242,3.242,0,0,1,.3,1.206s.033.222.062.481a.726.726,0,0,0,.9.649,1.676,1.676,0,0,0,1.122-.648.726.726,0,0,0-.11-1.106c-.21-.155-.386-.295-.386-.295a3.228,3.228,0,0,1-.9-.859l-.058-.1a.8.8,0,0,1,.237-1.05,11.264,11.264,0,0,0,2.417-2.33.8.8,0,0,1,1.03-.21l.151.087a3.241,3.241,0,0,1,.859.9s.139.176.295.385a.726.726,0,0,0,1.106.111,1.681,1.681,0,0,0,.648-1.122.727.727,0,0,0-.649-.9c-.259-.029-.481-.062-.481-.062a3.237,3.237,0,0,1-1.206-.3l-.1-.061a.8.8,0,0,1-.32-1.026,11.284,11.284,0,0,0,.936-3.224.8.8,0,0,1,.787-.7h.17a3.238,3.238,0,0,1,1.192.348s.208.083.448.187a.727.727,0,0,0,1.013-.457,1.684,1.684,0,0,0,0-1.3Z" transform="translate(0 0)" fill="#f2f3f7" stroke="#3d3f52" stroke-miterlimit="10" stroke-width="1"/>
    <path id="Stroke_1" data-name="Stroke 1" d="M5.073,2.536A2.536,2.536,0,1,1,2.536,0,2.537,2.537,0,0,1,5.073,2.536Z" transform="translate(8.651 7.7)" fill="none" stroke="#3d3f52" stroke-miterlimit="10" stroke-width="0.96"/>
    <path id="Stroke_3" data-name="Stroke 3" d="M3.386,1.693A1.693,1.693,0,1,1,1.693,0,1.693,1.693,0,0,1,3.386,1.693Z" transform="translate(17.472 19.089)" fill="none" stroke="#3d3f52" stroke-miterlimit="10" stroke-width="0.96"/>
    <path id="Stroke_5" data-name="Stroke 5" d="M3.386,1.693A1.693,1.693,0,1,1,1.693,0,1.693,1.693,0,0,1,3.386,1.693Z" transform="translate(6.958 15.341)" fill="none" stroke="#3d3f52" stroke-miterlimit="10" stroke-width="0.96"/>
    <path id="Stroke_7" data-name="Stroke 7" d="M3.386,1.693A1.693,1.693,0,1,1,1.693,0,1.693,1.693,0,0,1,3.386,1.693Z" transform="translate(13.724 15.341)" fill="none" stroke="#3d3f52" stroke-miterlimit="10" stroke-width="0.96"/>
    <path id="Stroke_9" data-name="Stroke 9" d="M2.605,1.3A1.3,1.3,0,1,1,1.3,0,1.3,1.3,0,0,1,2.605,1.3Z" transform="translate(20.858 14.675)" fill="none" stroke="#3d3f52" stroke-miterlimit="10" stroke-width="0.96"/>
    <path id="Stroke_11" data-name="Stroke 11" d="M1.909.954A.955.955,0,1,1,.955,0,.955.955,0,0,1,1.909.954Z" transform="translate(13.689 21.658)" fill="none" stroke="#3d3f52" stroke-miterlimit="10" stroke-width="0.96"/>
    <path id="Stroke_13" data-name="Stroke 13" d="M1.909.954A.954.954,0,1,1,.954,0,.955.955,0,0,1,1.909.954Z" transform="translate(17.793 9.676)" fill="none" stroke="#3d3f52" stroke-miterlimit="10" stroke-width="0.96"/>
  </g>
</svg>
