<svg xmlns="http://www.w3.org/2000/svg" xmlns:xlink="http://www.w3.org/1999/xlink" width="78.641" height="75.587" viewBox="0 0 78.641 75.587">
  <defs>
    <linearGradient id="linear-gradient" x1="0.5" x2="0.5" y2="1" gradientUnits="objectBoundingBox">
      <stop offset="0" stop-color="#8140a4"/>
      <stop offset="1" stop-color="#cb4594"/>
    </linearGradient>
  </defs>
  <g id="tick" transform="translate(0 -9.942)">
    <path id="Path_4344" data-name="Path 4344" d="M75.9,40.394a20.359,20.359,0,0,1-1.978-3.9,21.514,21.514,0,0,1-.742-4.5c-.249-2.587-.507-5.263-2.043-7.374-1.553-2.133-4.028-3.2-6.422-4.24a21.106,21.106,0,0,1-4.013-2.07,20.809,20.809,0,0,1-3.157-3.142c-1.731-1.973-3.52-4.013-6.067-4.839-2.436-.791-5.037-.215-7.552.343a22.184,22.184,0,0,1-4.6.7,22.2,22.2,0,0,1-4.6-.7c-2.515-.557-5.115-1.134-7.552-.342-2.546.827-4.336,2.867-6.067,4.839a20.807,20.807,0,0,1-3.157,3.141,11.459,11.459,0,0,1-1.361.839,1.152,1.152,0,1,0,1.084,2.033A13.718,13.718,0,0,0,19.3,20.174a22.789,22.789,0,0,0,3.533-3.485c1.6-1.819,3.1-3.536,5.046-4.168,1.84-.6,4.027-.113,6.342.4a23.867,23.867,0,0,0,5.1.75,23.859,23.859,0,0,0,5.1-.75c2.315-.513,4.5-1,6.342-.4,1.944.631,3.451,2.349,5.047,4.168a22.782,22.782,0,0,0,3.533,3.485A23.089,23.089,0,0,0,63.8,22.495c2.207.955,4.292,1.857,5.474,3.481,1.166,1.6,1.383,3.855,1.613,6.239a23.51,23.51,0,0,0,.844,4.99,22.324,22.324,0,0,0,2.19,4.367c1.245,2.092,2.421,4.067,2.421,6.163s-1.176,4.071-2.422,6.163a22.325,22.325,0,0,0-2.189,4.367,23.519,23.519,0,0,0-.844,4.99c-.229,2.384-.446,4.637-1.613,6.239C68.088,71.119,66,72.021,63.8,72.976A23.089,23.089,0,0,0,59.342,75.3a22.789,22.789,0,0,0-3.533,3.485c-1.6,1.819-3.1,3.536-5.046,4.167-1.84.6-4.026.113-6.342-.4a23.868,23.868,0,0,0-5.1-.75,23.868,23.868,0,0,0-5.1.75c-2.315.513-4.5,1-6.342.4-1.944-.631-3.451-2.349-5.046-4.168A22.782,22.782,0,0,0,19.3,75.3a23.093,23.093,0,0,0-4.454-2.321c-2.207-.955-4.292-1.857-5.474-3.481-1.166-1.6-1.383-3.855-1.613-6.239a23.519,23.519,0,0,0-.844-4.99A22.321,22.321,0,0,0,4.725,53.9C3.48,51.807,2.3,49.832,2.3,47.736s1.176-4.071,2.422-6.163a22.327,22.327,0,0,0,2.189-4.367,23.521,23.521,0,0,0,.844-4.99c.229-2.384.446-4.637,1.613-6.239A8.518,8.518,0,0,1,12.635,23.5a1.152,1.152,0,1,0-1.028-2.062,10.926,10.926,0,0,0-4.1,3.185C5.972,26.733,5.714,29.408,5.465,32a21.517,21.517,0,0,1-.742,4.5,20.358,20.358,0,0,1-1.978,3.9C1.4,42.662,0,45.006,0,47.736s1.4,5.074,2.746,7.342a20.358,20.358,0,0,1,1.978,3.9,21.524,21.524,0,0,1,.742,4.5c.249,2.587.507,5.263,2.043,7.374,1.553,2.133,4.028,3.2,6.422,4.24a21.1,21.1,0,0,1,4.013,2.07A20.807,20.807,0,0,1,21.1,80.3c1.731,1.973,3.52,4.013,6.067,4.839a8.43,8.43,0,0,0,2.624.388,23.194,23.194,0,0,0,4.928-.73,22.186,22.186,0,0,1,4.6-.7,22.184,22.184,0,0,1,4.6.7c2.515.557,5.115,1.134,7.552.342,2.546-.827,4.336-2.867,6.067-4.839A20.816,20.816,0,0,1,60.7,77.16a21.118,21.118,0,0,1,4.013-2.07c2.394-1.036,4.87-2.107,6.422-4.24,1.537-2.111,1.794-4.787,2.043-7.374a21.513,21.513,0,0,1,.742-4.5,20.358,20.358,0,0,1,1.978-3.9c1.35-2.267,2.746-4.612,2.746-7.341s-1.4-5.074-2.746-7.341Z" fill="url(#linear-gradient)"/>
    <path id="Path_4345" data-name="Path 4345" d="M50.894,76.788A16.359,16.359,0,0,1,49.311,79.9c-1.109,1.863-2.257,3.79-2.257,6.063s1.147,4.2,2.257,6.063a16.373,16.373,0,0,1,1.583,3.117,17.292,17.292,0,0,1,.591,3.6c.2,2.127.416,4.326,1.7,6.085,1.294,1.778,3.328,2.658,5.3,3.509A16.969,16.969,0,0,1,61.69,110a16.713,16.713,0,0,1,2.523,2.514c1.422,1.622,2.893,3.3,5.015,3.987a7.049,7.049,0,0,0,2.195.325,18.981,18.981,0,0,0,4.042-.6,17.553,17.553,0,0,1,3.683-.559,17.553,17.553,0,0,1,3.683.559c2.067.458,4.2.932,6.236.272,2.121-.689,3.592-2.365,5.015-3.987A16.726,16.726,0,0,1,96.6,110a16.969,16.969,0,0,1,3.211-1.654c1.968-.851,4-1.731,5.3-3.509,1.281-1.76,1.492-3.959,1.7-6.085a17.291,17.291,0,0,1,.592-3.6,16.352,16.352,0,0,1,1.583-3.117c1.109-1.863,2.257-3.79,2.257-6.063s-1.147-4.2-2.257-6.063a16.371,16.371,0,0,1-1.583-3.117,17.29,17.29,0,0,1-.592-3.6c-.2-2.127-.416-4.325-1.7-6.085-1.294-1.778-3.328-2.658-5.3-3.509A16.969,16.969,0,0,1,96.6,61.939a16.713,16.713,0,0,1-2.523-2.514c-1.422-1.622-2.893-3.3-5.015-3.987-2.032-.66-4.169-.186-6.236.272a17.553,17.553,0,0,1-3.683.559,17.553,17.553,0,0,1-3.683-.559c-2.067-.458-4.2-.932-6.236-.272-2.121.689-3.592,2.365-5.015,3.987a16.721,16.721,0,0,1-2.523,2.514,16.96,16.96,0,0,1-3.211,1.654c-1.968.851-4,1.731-5.3,3.509-1.281,1.76-1.492,3.959-1.7,6.085a17.3,17.3,0,0,1-.591,3.6Zm2.885-3.38c.183-1.9.356-3.7,1.266-4.95.923-1.269,2.587-1.988,4.348-2.75A18.876,18.876,0,0,0,63.045,63.8a18.623,18.623,0,0,0,2.9-2.857c1.273-1.451,2.476-2.822,3.994-3.315,1.434-.466,3.179-.079,5.026.33a19.509,19.509,0,0,0,4.181.613,19.509,19.509,0,0,0,4.181-.613c1.847-.409,3.592-.8,5.026-.33,1.519.493,2.721,1.864,3.994,3.315a18.624,18.624,0,0,0,2.9,2.857A18.876,18.876,0,0,0,98.9,65.707c1.761.762,3.425,1.482,4.348,2.75.91,1.251,1.083,3.048,1.266,4.95a19.223,19.223,0,0,0,.694,4.092A18.253,18.253,0,0,0,107,81.083c.994,1.669,1.932,3.245,1.932,4.884S108,89.183,107,90.852a18.25,18.25,0,0,0-1.795,3.584,19.223,19.223,0,0,0-.694,4.092c-.183,1.9-.356,3.7-1.266,4.95-.923,1.269-2.587,1.988-4.348,2.75a18.876,18.876,0,0,0-3.652,1.906,18.631,18.631,0,0,0-2.9,2.857c-1.273,1.451-2.475,2.822-3.994,3.315-1.435.466-3.179.079-5.026-.33a19.509,19.509,0,0,0-4.181-.613,19.509,19.509,0,0,0-4.181.613c-1.847.409-3.592.8-5.026.33-1.519-.493-2.721-1.864-3.994-3.315a18.624,18.624,0,0,0-2.9-2.857,18.884,18.884,0,0,0-3.652-1.906c-1.761-.762-3.425-1.482-4.348-2.75-.91-1.251-1.083-3.048-1.266-4.95a19.222,19.222,0,0,0-.693-4.092,18.254,18.254,0,0,0-1.795-3.584c-.994-1.669-1.932-3.245-1.932-4.884s.939-3.215,1.932-4.884A18.266,18.266,0,0,0,53.085,77.5a19.233,19.233,0,0,0,.693-4.092Z" transform="translate(-39.827 -38.232)" fill="url(#linear-gradient)"/>
    <path id="Path_4346" data-name="Path 4346" d="M167.576,206.886c-.067,0-.134,0-.2,0a5.981,5.981,0,0,1-4.394-2.153l-5.719-6.881a3.6,3.6,0,0,1,.467-5.065l1.6-1.332a3.6,3.6,0,0,1,5.065.467l2.881,3.467a.649.649,0,0,0,.968.033l.03-.03,14.715-14.357a3.6,3.6,0,0,1,5.07-.107l1.509,1.438a3.6,3.6,0,0,1,.123,5.085l-.024.025-7.82,7.729a1.152,1.152,0,0,1-1.62-1.639l7.805-7.715a1.3,1.3,0,0,0-.054-1.817l-1.51-1.438a1.293,1.293,0,0,0-1.828.044l-.03.03L169.9,197.023a2.952,2.952,0,0,1-4.392-.166l-2.881-3.467a1.3,1.3,0,0,0-1.821-.168l-1.6,1.332a1.3,1.3,0,0,0-.168,1.821l5.719,6.881a3.672,3.672,0,0,0,5.483.186l.024-.025,6.459-6.384a1.152,1.152,0,0,1,1.62,1.639l-6.447,6.372A5.98,5.98,0,0,1,167.576,206.886Z" transform="translate(-132.406 -143.879)" fill="url(#linear-gradient)"/>
  </g>
</svg>
