<svg xmlns="http://www.w3.org/2000/svg" width="23.489" height="21.118" viewBox="0 0 23.489 21.118">
  <path id="heart_1_" data-name="heart (1)" d="M19.785,1.871A5.778,5.778,0,0,0,15.487,0,5.406,5.406,0,0,0,12.11,1.166a6.908,6.908,0,0,0-1.365,1.425A6.9,6.9,0,0,0,9.38,1.166,5.405,5.405,0,0,0,6,0a5.779,5.779,0,0,0-4.3,1.871A6.717,6.717,0,0,0,0,6.458a8,8,0,0,0,2.131,5.236A45.448,45.448,0,0,0,7.467,16.7c.739.63,1.577,1.344,2.447,2.1a1.262,1.262,0,0,0,1.661,0c.87-.761,1.709-1.475,2.448-2.106a45.422,45.422,0,0,0,5.335-5.007A8,8,0,0,0,21.49,6.458a6.716,6.716,0,0,0-1.7-4.587Zm0,0" transform="translate(1 1)" fill="none" stroke="#aa439c" stroke-width="2"/>
</svg>
