<svg xmlns="http://www.w3.org/2000/svg" width="24.8" height="28.028" viewBox="0 0 24.8 28.028">
  <g id="location" transform="translate(-11.4 -4.551)">
    <path id="Path_1720" data-name="Path 1720" d="M27.626,23.012c.054-.089.109-.176.163-.266,2.449-4.055,3.682-7.6,3.664-10.541a7.653,7.653,0,1,0-15.306,0c-.018,2.941,1.215,6.488,3.664,10.542.054.09.109.177.163.266-5.156.637-8.574,2.48-8.574,4.668,0,2.747,5.446,4.9,12.4,4.9s12.4-2.152,12.4-4.9c0-2.188-3.418-4.031-8.574-4.668ZM16.972,12.2a6.828,6.828,0,0,1,13.656,0c.035,5.861-5.443,13.089-6.828,14.822C22.415,25.295,16.936,18.067,16.972,12.2ZM23.8,31.753c-6.924,0-11.575-2.106-11.575-4.073,0-1.744,3.449-3.368,8.235-3.894a43.682,43.682,0,0,0,3.025,4.162.412.412,0,0,0,.628,0,43.683,43.683,0,0,0,3.025-4.162c4.786.526,8.235,2.149,8.235,3.894C35.375,29.647,30.724,31.753,23.8,31.753Z" transform="translate(0 0)"/>
    <path id="Path_1721" data-name="Path 1721" d="M34.243,105.845a11.27,11.27,0,0,1-4.137-1.161.413.413,0,1,0-.432.7,12.035,12.035,0,0,0,4.464,1.276.4.4,0,0,0,.053,0,.413.413,0,0,0,.052-.822Z" transform="translate(-13.816 -76.481)"/>
    <path id="Path_1722" data-name="Path 1722" d="M59.851,110.605c-.575.013-1.174.01-1.758-.011a.413.413,0,1,0-.03.825c.363.013.731.02,1.1.02q.36,0,.712-.008a.413.413,0,0,0,.4-.422.408.408,0,0,0-.422-.4Z" transform="translate(-35.359 -81.045)"/>
    <path id="Path_1723" data-name="Path 1723" d="M56.189,25.727A3.484,3.484,0,1,0,52.7,29.212,3.484,3.484,0,0,0,56.189,25.727Zm-6.142,0a2.659,2.659,0,1,1,2.659,2.659A2.659,2.659,0,0,1,50.046,25.727Z" transform="translate(-28.905 -13.522)"/>
  </g>
</svg>
