<svg id="newspaper" xmlns="http://www.w3.org/2000/svg" width="20.294" height="20.294" viewBox="0 0 20.294 20.294">
  <path id="Path_888" data-name="Path 888" d="M20,0H3.865a.3.3,0,0,0-.3.3V2.378H.3a.3.3,0,0,0-.3.3V18.213a2.083,2.083,0,0,0,2.081,2.081H18.213a2.083,2.083,0,0,0,2.081-2.081V.3A.3.3,0,0,0,20,0ZM2.081,19.7A1.488,1.488,0,0,1,.595,18.213V2.973h.595V9.85a.3.3,0,1,0,.595,0V2.973h.595v15.24a.3.3,0,0,1-.595,0V11.039a.3.3,0,0,0-.595,0v7.174a.892.892,0,0,0,1.784,0V2.973h.595v15.24A1.488,1.488,0,0,1,2.081,19.7ZM19.7,18.213A1.488,1.488,0,0,1,18.213,19.7H3.536a2.075,2.075,0,0,0,.626-1.486V.595H19.7Z" fill="#2fa05e"/>
  <path id="Path_889" data-name="Path 889" d="M150.3,287.595h5.093a.3.3,0,1,0,0-.595H150.3a.3.3,0,1,0,0,.595Z" transform="translate(-144.055 -275.624)" fill="#2fa05e"/>
  <path id="Path_890" data-name="Path 890" d="M150.3,317.595h5.093a.3.3,0,1,0,0-.595H150.3a.3.3,0,1,0,0,.595Z" transform="translate(-144.055 -304.435)" fill="#2fa05e"/>
  <path id="Path_891" data-name="Path 891" d="M150.3,257.595h5.093a.3.3,0,1,0,0-.595H150.3a.3.3,0,1,0,0,.595Z" transform="translate(-144.055 -246.813)" fill="#2fa05e"/>
  <path id="Path_892" data-name="Path 892" d="M150.3,227.595h5.093a.3.3,0,1,0,0-.595H150.3a.3.3,0,0,0,0,.595Z" transform="translate(-144.055 -218.003)" fill="#2fa05e"/>
  <path id="Path_893" data-name="Path 893" d="M313.891,227H308.8a.3.3,0,0,0-.3.3v4.756a.3.3,0,0,0,.3.3h5.093a.3.3,0,0,0,.3-.3V227.3A.3.3,0,0,0,313.891,227Zm-.3,4.756h-4.5v-4.162h4.5Z" transform="translate(-296.272 -218.003)" fill="#2fa05e"/>
  <path id="Path_894" data-name="Path 894" d="M150.3,94.836h11.376a.3.3,0,0,0,.3-.3V90.3a.3.3,0,0,0-.3-.3H150.3a.3.3,0,0,0-.3.3v4.241A.3.3,0,0,0,150.3,94.836Zm.3-.595v-.595h10.781v.595Zm10.781-3.647v2.457H150.595V90.595Z" transform="translate(-144.055 -86.433)" fill="#2fa05e"/>
  <path id="Path_895" data-name="Path 895" d="M150.3,60.595h11.376a.3.3,0,0,0,0-.595H150.3a.3.3,0,0,0,0,.595Z" transform="translate(-144.055 -57.622)" fill="#2fa05e"/>
  <path id="Path_896" data-name="Path 896" d="M313.891,377H308.8a.3.3,0,1,0,0,.595h5.093a.3.3,0,1,0,0-.595Z" transform="translate(-296.272 -362.057)" fill="#2fa05e"/>
  <path id="Path_897" data-name="Path 897" d="M313.891,407H308.8a.3.3,0,1,0,0,.595h5.093a.3.3,0,1,0,0-.595Z" transform="translate(-296.272 -390.868)" fill="#2fa05e"/>
  <path id="Path_898" data-name="Path 898" d="M313.891,437H308.8a.3.3,0,1,0,0,.594h5.093a.3.3,0,1,0,0-.594Z" transform="translate(-296.272 -419.679)" fill="#2fa05e"/>
  <path id="Path_899" data-name="Path 899" d="M150.3,377.595h5.093a.3.3,0,1,0,0-.595H150.3a.3.3,0,1,0,0,.595Z" transform="translate(-144.055 -362.057)" fill="#2fa05e"/>
  <path id="Path_900" data-name="Path 900" d="M150.3,347.595h5.093a.3.3,0,1,0,0-.594H150.3a.3.3,0,1,0,0,.594Z" transform="translate(-144.055 -333.246)" fill="#2fa05e"/>
  <path id="Path_901" data-name="Path 901" d="M150.3,407.595h5.093a.3.3,0,1,0,0-.595H150.3a.3.3,0,1,0,0,.595Z" transform="translate(-144.055 -390.868)" fill="#2fa05e"/>
  <path id="Path_902" data-name="Path 902" d="M150.3,437.595h5.093a.3.3,0,1,0,0-.594H150.3a.3.3,0,1,0,0,.594Z" transform="translate(-144.055 -419.679)" fill="#2fa05e"/>
</svg>
