<svg xmlns="http://www.w3.org/2000/svg" width="20.898" height="20.894" viewBox="0 0 20.898 20.894">
  <g id="Group_44" data-name="Group 44" transform="translate(-326.532 -279.532)">
    <g id="Group_43" data-name="Group 43" transform="translate(326.532 279.532)">
      <path id="Path_135" data-name="Path 135" d="M-324.014,184.7c1.876,0,3.751,0,5.627,0a1.205,1.205,0,0,1,1.251.722,1.169,1.169,0,0,1-1.092,1.618c-.054,0-.109,0-.163,0h-11.228a1.218,1.218,0,0,1-1.33-.919,1.152,1.152,0,0,1,.981-1.4c.279-.025.561-.019.842-.019Q-326.569,184.7-324.014,184.7Z" transform="translate(334.462 -175.413)" fill="#fff"/>
      <path id="Path_136" data-name="Path 136" d="M-332.643,176.368v.323c0,1.042.005,2.083,0,3.125a1.172,1.172,0,0,1-.917,1.166,1.159,1.159,0,0,1-1.29-.629,1.392,1.392,0,0,1-.118-.55q-.014-2.283,0-4.566a1.148,1.148,0,0,1,1.174-1.2q2.31-.014,4.622,0a1.143,1.143,0,0,1,1.165,1.174,1.15,1.15,0,0,1-1.187,1.153C-330.334,176.371-331.466,176.368-332.643,176.368Z" transform="translate(334.979 -174.032)" fill="#fff"/>
      <path id="Path_137" data-name="Path 137" d="M-314.342,176.368h-.332c-1.042,0-2.084.006-3.125,0a1.159,1.159,0,0,1-1.174-1.143,1.145,1.145,0,0,1,1.134-1.18q2.351-.021,4.7,0a1.128,1.128,0,0,1,1.124,1.156q.005,2.323,0,4.647a1.144,1.144,0,0,1-1.014,1.148,1.138,1.138,0,0,1-1.276-.953,2.786,2.786,0,0,1-.037-.459C-314.342,178.523-314.342,177.465-314.342,176.368Z" transform="translate(332.908 -174.032)" fill="#fff"/>
      <path id="Path_138" data-name="Path 138" d="M-314.342,194.673c0-1.1,0-2.159,0-3.218a2.671,2.671,0,0,1,.043-.486,1.154,1.154,0,0,1,1.252-.927,1.151,1.151,0,0,1,1.032,1.14q.007,2.339,0,4.678a1.121,1.121,0,0,1-1.138,1.135q-2.339.005-4.678,0a1.143,1.143,0,0,1-1.141-1.055,1.147,1.147,0,0,1,.953-1.229,2.788,2.788,0,0,1,.459-.036C-316.5,194.672-315.439,194.673-314.342,194.673Z" transform="translate(332.908 -176.103)" fill="#fff"/>
      <path id="Path_139" data-name="Path 139" d="M-332.643,194.673c.878,0,1.72,0,2.563,0a9.2,9.2,0,0,1,1.085.034,1.125,1.125,0,0,1,.979,1.254,1.144,1.144,0,0,1-1.16,1.033q-2.326,0-4.652,0a1.121,1.121,0,0,1-1.142-1.106q-.018-2.366,0-4.733a1.145,1.145,0,0,1,1.171-1.116,1.163,1.163,0,0,1,1.153,1.2c.011,1.033,0,2.067,0,3.1Z" transform="translate(334.979 -176.104)" fill="#fff"/>
    </g>
  </g>
</svg>
